<svg width="64" height="67" viewBox="0 0 64 67" fill="none" xmlns="http://www.w3.org/2000/svg">
<path d="M28.2752 1.7984C24.0095 4.29689 6.52007 14.3975 5.84974 14.7479C5.65169 14.8393 5.49934 14.9764 5.49934 15.0526C5.49934 15.1897 20.7798 24.0563 21.0083 24.0563C21.0845 24.0563 23.3087 22.807 25.9291 21.2988C28.5647 19.7753 31.8402 17.8862 33.2265 17.094C34.6129 16.2866 37.0809 14.8545 38.7263 13.91C40.3716 12.9502 41.8037 12.1732 41.9103 12.1732C42.1236 12.1732 42.1845 12.2037 48.1108 15.6163L52.407 18.0995L54.8903 16.6522C56.2614 15.86 57.3888 15.1592 57.4193 15.083C57.4345 15.0221 56.3833 14.3365 55.0579 13.5748C53.7325 12.8283 50.2589 10.8173 47.3339 9.12629C42.7178 6.46021 41.9713 6.07935 41.6666 6.20123C41.4837 6.29263 36.8829 8.92824 31.4593 12.0666C26.0205 15.2049 21.4349 17.8405 21.2673 17.9167C21.0083 18.0538 20.6122 17.871 18.9059 16.8655C17.7785 16.2104 16.6207 15.5553 16.3617 15.4182C16.0875 15.2811 15.8589 15.1288 15.8589 15.083C15.8742 15.0373 18.3879 13.5443 21.4501 11.7924C24.5275 10.0251 27.6811 8.2122 28.4885 7.73993C34.1558 4.46447 36.1211 3.32187 36.3344 3.2457C36.4715 3.19999 36.5782 3.09335 36.5782 3.03241C36.5782 2.95624 35.984 2.56013 35.2527 2.1488C34.5062 1.72223 33.3636 1.06713 32.6933 0.686268C32.023 0.305401 31.4441 -0.0145283 31.3984 0.000705687C31.3527 0.000705687 29.9511 0.82338 28.2752 1.7984Z" fill="white"/>
<path d="M0.105779 18.2216C0.0600745 18.2673 0.0143705 22.3045 0.0143705 27.1949C0.0143705 34.279 0.0448398 36.0919 0.197187 36.0919C0.303829 36.0767 1.49213 35.4368 2.83279 34.6599L5.27033 33.2278L5.31604 30.2418C5.33127 28.5964 5.39221 27.2558 5.42268 27.2558C5.49885 27.2558 7.22037 28.246 17.6714 34.2942C19.3929 35.2845 20.9011 36.0919 21.0382 36.0919C21.1601 36.0919 21.8152 35.772 22.4855 35.3759C23.6891 34.6751 27.0864 32.7098 35.3588 27.9414C37.6592 26.6159 40.0511 25.2296 40.6605 24.8639C41.2851 24.4983 41.8488 24.2089 41.925 24.2089C42.0011 24.2089 44.4844 25.6104 47.4399 27.3015C50.3802 29.0078 52.9549 30.4855 53.1529 30.5922C53.4728 30.7598 53.6252 30.7141 54.524 30.1809C55.0877 29.8457 57.1901 28.6422 59.2011 27.4843C61.2121 26.3417 63.1164 25.2296 63.4211 25.0315L63.9695 24.6811L64 21.8018C64 20.2326 63.9695 18.8919 63.9086 18.831C63.8477 18.7701 63.7258 18.7853 63.6344 18.8615C63.2687 19.1357 53.61 24.6659 53.4576 24.6659C53.3814 24.6659 50.8982 23.2643 47.9579 21.5732C45.0024 19.867 42.4429 18.3892 42.2601 18.2826C41.9554 18.1302 41.0566 18.6025 33.0431 23.2338C28.1528 26.037 23.4605 28.764 22.5922 29.2668L21.0382 30.1809L16.7268 27.6976C8.18015 22.7768 2.64997 19.5775 1.4312 18.8615C0.760869 18.4654 0.151483 18.1759 0.105779 18.2216Z" fill="white"/>
<path d="M41.9102 31.4308C39.5641 32.7715 34.3386 35.7879 28.3818 39.2462C24.9997 41.1963 22.1661 42.7959 22.0746 42.7959C21.9985 42.7959 19.759 41.5467 17.1081 40.0079C14.4573 38.4692 11.8826 36.9915 11.4104 36.7173L10.542 36.2297L5.46884 39.1548C2.6809 40.7544 0.319521 42.1408 0.228113 42.2017C0.0452963 42.3541 -0.0918158 47.8386 0.0757657 48.1128C0.136704 48.189 2.46761 46.9245 5.30126 45.2944C8.11968 43.6643 10.4811 42.3389 10.5572 42.3389C10.6334 42.3389 13.1167 43.7405 16.0569 45.4315C19.0125 47.1378 21.5719 48.6156 21.77 48.7222C22.1356 48.9203 21.0692 49.4992 34.4452 41.7752C36.9132 40.3431 39.8535 38.6521 40.9657 38.0122L42.9919 36.8391L49.2686 40.4498C52.7268 42.4303 56.1699 44.426 56.9164 44.8678C61.8829 47.7624 63.7872 48.8441 63.8786 48.7831C64.0462 48.6917 64.031 30.9128 63.8634 30.9128C63.7872 30.9128 62.5837 31.5679 61.1973 32.3754L58.6684 33.8379V36.7934C58.6684 38.4235 58.6227 39.749 58.5769 39.749C58.5312 39.749 57.1754 38.9872 55.5757 38.0579C53.9608 37.1286 51.9346 35.9555 51.051 35.4375C50.1674 34.9348 48.9029 34.1883 48.2326 33.8074C47.5623 33.4113 46.2673 32.6496 45.338 32.1316C44.4239 31.5984 43.5251 31.0804 43.3575 30.9738C43.0833 30.7909 42.9157 30.8519 41.9102 31.4308Z" fill="white"/>
<path d="M36.8825 46.3911C33.6527 48.265 29.6764 50.5654 28.0463 51.5099C26.4162 52.4545 24.4052 53.6123 23.5826 54.0998L22.1048 54.9682L19.2407 53.3229C17.6715 52.4088 15.3101 51.0529 13.9999 50.2912L11.6233 48.92L9.12483 50.3521C7.75371 51.1443 6.64157 51.8451 6.64157 51.9365C6.64157 52.0584 8.37833 53.0943 18.8903 59.1577C22.4552 61.2144 21.8458 61.1535 24.3138 59.7062C25.1517 59.2187 29.6917 56.5983 34.4144 53.8713L42.9916 48.92L45.5662 50.3826C46.9831 51.2052 48.1409 51.8908 48.1409 51.9365C48.1409 51.9822 47.4096 52.424 46.5108 52.942C41.1025 56.0194 27.7873 63.7434 27.6198 63.8957C27.4522 64.0481 27.8483 64.3375 29.6764 65.3735C30.9105 66.0895 32.0835 66.7446 32.2511 66.836C32.6015 67.0188 31.8398 67.4302 52.5742 55.471C54.5395 54.3284 56.6876 53.0943 57.3427 52.7287C57.9825 52.3631 58.5157 52.0127 58.5157 51.9517C58.5157 51.7842 43.1896 42.948 42.9459 42.9633C42.8392 42.9785 40.1122 44.5172 36.8825 46.3911Z" fill="white"/>
</svg>
