<svg width="22" height="22" viewBox="0 0 22 22" fill="none" xmlns="http://www.w3.org/2000/svg">
<path d="M13.7273 7.57243V3.40576C13.7273 2.74272 13.4399 2.10684 12.9285 1.63799C12.417 1.16915 11.7233 0.905762 11 0.905762H3.72727C3.00396 0.905762 2.31026 1.16915 1.7988 1.63799C1.28734 2.10684 1 2.74272 1 3.40576V18.4058C1 19.0688 1.28734 19.7047 1.7988 20.1735C2.31026 20.6424 3.00396 20.9058 3.72727 20.9058H11C11.7233 20.9058 12.417 20.6424 12.9285 20.1735C13.4399 19.7047 13.7273 19.0688 13.7273 18.4058V14.2391M9.18182 7.57243L5.54545 10.9058M5.54545 10.9058L9.18182 14.2391M5.54545 10.9058H21" stroke="#B3B3B3" stroke-width="1.5" stroke-linecap="round" stroke-linejoin="round"/>
</svg>
