<svg width="21" height="21" viewBox="0 0 21 21" fill="none" xmlns="http://www.w3.org/2000/svg">
<path fill-rule="evenodd" clip-rule="evenodd" d="M1.08503 5.85308C2.80098 2.38662 6.37379 0 10.5021 0C13.145 0 15.5576 0.98088 17.403 2.59352L14.2418 5.83953C13.2422 4.88996 11.9096 4.31564 10.3676 4.31564C7.64085 4.31564 5.32952 6.12261 4.49331 8.6313L4.12536 8.33805L4.48924 8.63535C4.27422 9.28215 4.1552 9.97485 4.1552 10.6962C4.1552 11.4404 4.28195 12.1518 4.51368 12.8106C5.37851 15.2691 7.7103 16.9983 10.4165 16.9983C11.7468 16.9983 12.9125 16.6098 13.8425 15.9162L17.0607 18.6956C15.2634 20.1363 12.9849 21 10.5021 21C6.48116 21 2.98671 18.74 1.22211 15.4206C0.442155 13.9535 0 12.2798 0 10.5021C0 8.8317 0.38943 7.25414 1.08362 5.85192L1.08503 5.85308ZM20.283 14.318C20.2848 14.3135 20.2866 14.309 20.2886 14.3045C20.2898 14.3013 20.2911 14.2982 20.2923 14.295L20.2964 14.2854C20.3015 14.273 20.3067 14.2605 20.3117 14.2478C20.3309 14.1974 20.3486 14.1474 20.3666 14.0969C20.3727 14.0798 20.3787 14.0627 20.3848 14.0454C20.3885 14.0354 20.3924 14.0253 20.3961 14.0151C20.4006 14.0031 20.4053 13.9911 20.4093 13.9793C20.434 13.9089 20.4594 13.8357 20.4827 13.7646L20.4872 13.7511L20.4904 13.7411C20.4946 13.7283 20.4988 13.7156 20.503 13.7027C20.5191 13.6523 20.534 13.6014 20.5488 13.5504C20.5553 13.5282 20.5617 13.506 20.5683 13.4837L20.5781 13.4507C20.5956 13.3917 20.613 13.3326 20.6294 13.2731C20.6316 13.2647 20.634 13.2564 20.6363 13.248L20.6367 13.2464C20.6411 13.2305 20.6456 13.2147 20.6498 13.1988C20.6522 13.1897 20.6541 13.1805 20.6561 13.1712C20.6579 13.1625 20.6597 13.1537 20.6619 13.1451L20.6669 13.1262L20.6775 13.0854L20.6786 13.0815C20.673 13.1027 20.6674 13.1238 20.6619 13.1451C20.6861 13.052 20.7095 12.9584 20.7312 12.8643C20.7341 12.8514 20.7374 12.8387 20.7407 12.8259C20.7444 12.8112 20.7483 12.7965 20.7516 12.7817C20.7843 12.6336 20.8128 12.4847 20.8392 12.3344L20.8412 12.3233L20.8452 12.3002C20.8594 12.2189 20.8739 12.1367 20.886 12.0548C20.8874 12.0452 20.8887 12.0356 20.8901 12.026C20.8907 12.0215 20.8914 12.017 20.892 12.0125L20.8929 12.006L20.8941 11.997C20.8943 11.9957 20.8943 11.9943 20.8941 11.993C20.894 11.9915 20.894 11.9901 20.8941 11.9888C20.9142 11.8476 20.9327 11.7063 20.9471 11.5634C20.9502 11.5326 20.9528 11.5013 20.9553 11.4701C20.9567 11.4543 20.9579 11.4386 20.9594 11.423C20.9613 11.3996 20.9636 11.376 20.9657 11.3523C20.9706 11.2982 20.9757 11.243 20.9793 11.189L20.9796 11.1836C20.9811 11.1617 20.9825 11.1393 20.9838 11.1174C20.9838 11.1153 20.9838 11.1132 20.9837 11.1111C20.9837 11.1092 20.9837 11.1071 20.9837 11.105C20.9892 11.0076 20.9931 10.9098 20.996 10.8117C20.996 10.8104 20.996 10.809 20.996 10.8077C20.996 10.8063 20.996 10.8048 20.996 10.8035C20.9988 10.7027 21 10.6035 21 10.502C21 9.90375 20.9495 9.31785 20.8533 8.7468H15.9405H10.2902V12.8519H15.8957C15.8027 13.1739 15.6876 13.482 15.5535 13.7729C15.4983 13.8926 15.4401 14.0099 15.3783 14.1239C15.3711 14.1371 15.3635 14.15 15.3558 14.1627C15.3497 14.1731 15.3435 14.1836 15.3375 14.1941C15.3374 14.1945 15.3375 14.1936 15.3375 14.1941V14.1962C15.3374 14.1959 15.3377 14.1966 15.3375 14.1962C15.3375 14.1966 15.3377 14.198 15.3375 14.1983C15.2961 14.2686 15.2538 14.3412 15.2195 14.4006C15.1752 14.4692 15.1301 14.5404 15.0932 14.5988C15.0506 14.6621 15.0075 14.7236 14.9628 14.7846C14.9583 14.7908 14.9537 14.7965 14.949 14.8023C14.948 14.8037 14.9468 14.805 14.9457 14.8064C14.9405 14.8128 14.9352 14.8193 14.9303 14.826C14.9001 14.8634 14.8704 14.9033 14.844 14.9387C14.8358 14.9498 14.8278 14.9604 14.8202 14.9705C14.7191 15.0941 14.6126 15.2141 14.5188 15.3132C14.4734 15.3614 14.4269 15.4076 14.3849 15.4494L14.3598 15.4743C14.3133 15.5198 14.2658 15.5637 14.2223 15.6039L14.2062 15.6188L14.1929 15.6312C14.138 15.68 14.0826 15.7253 14.0259 15.7716C14.0126 15.7829 13.9991 15.7941 13.9853 15.8052C13.9493 15.8343 13.9115 15.8633 13.877 15.8897C13.8651 15.8988 13.8536 15.9077 13.8425 15.9162L17.0607 18.6956L17.0621 18.6945C17.1092 18.6567 17.1569 18.6185 17.2034 18.5799H17.2074C17.2229 18.567 17.2382 18.5538 17.2535 18.5408C17.264 18.5318 17.2743 18.5228 17.2848 18.5138C17.3559 18.4536 17.4249 18.3918 17.4942 18.3297L17.5007 18.3239C17.5178 18.3086 17.535 18.2936 17.5521 18.2786C17.5787 18.2555 17.6052 18.2322 17.6312 18.2082C17.6468 18.1938 17.6619 18.179 17.6771 18.1641C17.6838 18.1575 17.6907 18.1508 17.6975 18.1442C17.7026 18.1394 17.7075 18.1346 17.7126 18.1298C17.7257 18.1173 17.739 18.1049 17.7524 18.0924C17.78 18.0666 17.808 18.0402 17.8347 18.0141C17.8514 17.9979 17.8677 17.9811 17.8841 17.9643C17.8962 17.9519 17.9082 17.9394 17.9204 17.9274C17.9587 17.889 17.9966 17.8508 18.0344 17.8118C18.0521 17.7936 18.0692 17.7752 18.0864 17.7567L18.0953 17.7472C18.0981 17.7441 18.101 17.7411 18.1038 17.7381C18.1092 17.7323 18.1145 17.7266 18.12 17.7209C18.186 17.6513 18.2513 17.5818 18.3155 17.5103C18.3803 17.4381 18.4442 17.3654 18.507 17.2914C18.5691 17.2182 18.6301 17.1434 18.6903 17.0684C18.7191 17.0325 18.7475 16.9973 18.7758 16.961C18.7938 16.9379 18.8111 16.9145 18.8283 16.8911C18.8367 16.8797 18.8453 16.8683 18.8537 16.8569C18.8576 16.8516 18.8615 16.8465 18.8654 16.8413C18.9233 16.7651 18.9807 16.6878 19.0365 16.61C19.0514 16.5893 19.0665 16.5684 19.0817 16.5476C19.1201 16.4945 19.1589 16.4409 19.1954 16.3869C19.1967 16.385 19.1981 16.383 19.1994 16.3809L19.2014 16.3778L19.2036 16.3746C19.2266 16.3406 19.2501 16.3058 19.2728 16.2714C19.2943 16.2387 19.3146 16.2065 19.3352 16.1739C19.3442 16.1598 19.3532 16.1454 19.3625 16.1308C19.3707 16.118 19.3791 16.1052 19.3874 16.0925C19.3995 16.0737 19.4116 16.0551 19.4235 16.0359C19.4468 15.9984 19.4696 15.9605 19.4922 15.9224C19.4991 15.9107 19.5062 15.899 19.5132 15.8873C19.5198 15.8762 19.5266 15.8649 19.5333 15.8538C19.5425 15.8385 19.5519 15.8232 19.5609 15.8079C19.5641 15.8027 19.5672 15.7976 19.5702 15.7923C19.6004 15.7406 19.6305 15.6876 19.6598 15.6354C19.7043 15.5561 19.7478 15.4751 19.7903 15.3945L19.7915 15.3923L19.7984 15.3794C19.8429 15.2946 19.8864 15.2091 19.9289 15.123L19.9311 15.1182C19.9694 15.0407 20.0065 14.9624 20.0427 14.8838C20.0447 14.8796 20.0466 14.8757 20.0487 14.8716C20.0508 14.8674 20.0531 14.8632 20.055 14.859C20.0597 14.8487 20.0643 14.8383 20.0688 14.828C20.0717 14.8217 20.0744 14.8154 20.0772 14.8091C20.082 14.7983 20.0868 14.7872 20.0916 14.7764C20.1194 14.7141 20.1465 14.6534 20.1731 14.5905C20.1779 14.5791 20.183 14.5679 20.1881 14.5565C20.1941 14.5431 20.2001 14.5298 20.2056 14.5163C20.2236 14.4728 20.2407 14.4284 20.2577 14.3841C20.2662 14.3621 20.2746 14.3397 20.283 14.318ZM17.1215 18.648C17.1021 18.663 17.0828 18.678 17.0634 18.6935C17.1104 18.6558 17.1572 18.6182 17.2034 18.5799H17.2074C17.1792 18.6033 17.1503 18.6257 17.1215 18.648ZM20.3616 14.1114L20.3627 14.1087C20.3513 14.1417 20.3402 14.174 20.3279 14.2065C20.3396 14.1749 20.3505 14.1432 20.3616 14.1114ZM18.8654 16.8413C18.9233 16.7651 18.9807 16.6878 19.0365 16.61C18.9527 16.7269 18.8684 16.8437 18.7799 16.9569C18.7961 16.9361 18.8115 16.9148 18.827 16.8935C18.8396 16.8761 18.8523 16.8585 18.8654 16.8413Z" fill="#0B0B0F"/>
</svg>
